<svg xmlns="http://www.w3.org/2000/svg" width="32" height="32" fill="none"><path stroke="#171B22" stroke-linecap="round" stroke-linejoin="round" stroke-width="2" d="m12.567 25.828.783 1.752c.233.522.613.965 1.094 1.276a2.974 2.974 0 0 0 4.325-1.276l.783-1.752a3.24 3.24 0 0 1 1.34-1.482 3.273 3.273 0 0 1 1.97-.416l1.915.203c.57.06 1.146-.046 1.657-.305a2.958 2.958 0 0 0 1.615-2.785 2.939 2.939 0 0 0-.563-1.58l-1.134-1.551a3.227 3.227 0 0 1-.616-1.913c0-.684.217-1.351.622-1.905l1.134-1.55a2.939 2.939 0 0 0-1.052-4.366 2.976 2.976 0 0 0-1.657-.305l-1.916.203a3.24 3.24 0 0 1-3.31-1.905L18.77 4.42a2.954 2.954 0 0 0-1.094-1.276 2.974 2.974 0 0 0-4.325 1.276l-.783 1.752a3.24 3.24 0 0 1-3.309 1.905l-1.922-.203a2.976 2.976 0 0 0-1.657.305 2.958 2.958 0 0 0-1.615 2.785c.03.57.225 1.119.563 1.58l1.134 1.551a3.228 3.228 0 0 1 0 3.81l-1.134 1.552A2.94 2.94 0 0 0 5.68 23.82a2.98 2.98 0 0 0 1.656.305l1.916-.203a3.273 3.273 0 0 1 1.97.417 3.239 3.239 0 0 1 1.345 1.489Z"/><path stroke="#171B22" stroke-linecap="round" stroke-linejoin="round" stroke-width="2" d="M16.057 20c2.22 0 4.02-1.791 4.02-4 0-2.21-1.8-4-4.02-4-2.22 0-4.02 1.79-4.02 4 0 2.209 1.8 4 4.02 4Z"/></svg>